<?xml version="1.0" encoding="utf-8"?>
<!-- Generator: Adobe Illustrator 21.1.0, SVG Export Plug-In . SVG Version: 6.00 Build 0)  -->
<svg version="1.1"
	 id="svg4712" inkscape:version="0.92.1 r15371" sodipodi:docname="Belgian Police Logo (Fr-ench).svg" xmlns:cc="http://creativecommons.org/ns#" xmlns:dc="http://purl.org/dc/elements/1.1/" xmlns:inkscape="http://www.inkscape.org/namespaces/inkscape" xmlns:rdf="http://www.w3.org/1999/02/22-rdf-syntax-ns#" xmlns:sodipodi="http://sodipodi.sourceforge.net/DTD/sodipodi-0.dtd" xmlns:svg="http://www.w3.org/2000/svg"
	 xmlns="http://www.w3.org/2000/svg" xmlns:xlink="http://www.w3.org/1999/xlink" x="0px" y="0px" viewBox="0 0 43.5 56.7"
	 style="enable-background:new 0 0 43.5 56.7;" xml:space="preserve">
<style type="text/css">
	.st0{fill:#FFFFFF;}
	.st1{fill:#244BA6;}
	.st2{fill:#DC5D15;}
</style>
<sodipodi:namedview  bordercolor="#666666" borderopacity="1.0" fit-margin-bottom="0" fit-margin-left="0" fit-margin-right="0" fit-margin-top="0" id="base" inkscape:current-layer="layer1" inkscape:cx="-3.0627042" inkscape:cy="41.230173" inkscape:document-units="mm" inkscape:pageopacity="0.0" inkscape:pageshadow="2" inkscape:window-height="1001" inkscape:window-maximized="1" inkscape:window-width="1920" inkscape:window-x="-9" inkscape:window-y="-9" inkscape:zoom="5.6" pagecolor="#ffffff" showgrid="false">
	</sodipodi:namedview>
<g>
	<path id="path4531" inkscape:connector-curvature="0" class="st0" d="M36.6,14.9c0,8.2-6.7,14.9-14.9,14.9S6.8,23.1,6.8,14.9
		S13.5,0,21.7,0C29.9,0,36.6,6.7,36.6,14.9"/>
	<path id="path4535" inkscape:connector-curvature="0" class="st1" d="M36.6,14.9C36.6,6.6,29.9,0,21.7,0C13.4,0,6.8,6.7,6.8,14.9
		c0,7.9,6.1,14.3,13.8,14.9c-0.7-0.8-1.5-1.9-2.2-2.9c-1.2-1.7-2.7-4.3-2.7-6.9c0-1.9,0.4-2.9,2.9-6.9c1-1.5,1.6-4.2,1.5-4.8
		s0.9,0.9,1.3,1.8c0.5,1.3,0.4,2.2-0.5,4.9c-0.4,1.2-1.2,3.3-0.4,4.2c-0.1-0.1,2.4-2.6,2.9-5.2c0.4-2,0.3-4.6-0.6-6.6
		c-0.7-1.7-1.7-3.1-1.5-5.4c0.1-0.9,0.3-1.9,0.4-1.9c0.6,1.4,0.8,1.9,1,2.3c1,1.9,3.1,4.7,4.1,6.6c1,1.9,1.8,5.1,0.6,8.3
		c-1.1,3.2-2.2,4.2-3.4,6.8c-0.8,1.9-1.6,4.3-1.9,5.7C30.2,29.6,36.6,23,36.6,14.9"/>
	<path id="path4543" inkscape:connector-curvature="0" class="st1" d="M5.2,43.6c0,1.3-0.9,2-2.3,2c-0.2,0-0.4,0-0.7-0.1v-3.9
		c0.3,0,0.5,0,0.8,0C4.5,41.7,5.2,42.4,5.2,43.6 M7.5,43.5c0-2.3-1.6-3.6-4.4-3.6c-1.1,0-2.2,0-3.1,0.1v11.6h2.2v-4.1
		c0.3,0,0.5,0,0.8,0C5.8,47.5,7.5,45.7,7.5,43.5"/>
	<path id="path4547" inkscape:connector-curvature="0" class="st1" d="M14.4,47.2c0,1.7-0.8,2.6-1.9,2.6c-1.3,0-1.9-0.9-1.9-2.6
		c0-1.8,1-2.5,1.9-2.5C13.8,44.7,14.4,45.6,14.4,47.2 M16.6,47.1c0-2.9-1.6-4.3-4-4.3c-2.6,0-4.4,1.9-4.4,4.6c0,3,1.6,4.3,4,4.3
		C14.8,51.7,16.6,49.8,16.6,47.1"/>
	<path id="path4551" inkscape:connector-curvature="0" class="st1" d="M20.7,51.5h-2.2V40.6c-0.4-0.1-1-0.1-1.5-0.2V39
		c1.1-0.1,2.4-0.2,3.7-0.2V51.5z"/>
	<path id="path4555" inkscape:connector-curvature="0" class="st1" d="M25.1,41.9c-0.7,0-1.4-0.6-1.4-1.3s0.6-1.3,1.4-1.3
		c0.8,0,1.4,0.6,1.4,1.3C26.4,41.3,25.8,41.9,25.1,41.9 M26.2,51.5H24v-6.9c-0.4-0.1-1-0.1-1.5-0.2V43c1.1-0.1,2.4-0.2,3.7-0.2V51.5
		z"/>
	<path id="path4559" inkscape:connector-curvature="0" class="st1" d="M32.1,51.7c-2.4,0-3.8-1.2-3.8-4.1c0-2.7,1.4-4.7,4.4-4.7
		c0.6,0,1.2,0.1,1.8,0.2L34.3,45c-0.5-0.2-1-0.3-1.5-0.3c-1.4,0-2.1,1-2.1,2.6c0,1.5,0.6,2.5,2,2.5c0.6,0,1.2-0.1,1.7-0.4l0.2,1.9
		C33.9,51.5,33,51.7,32.1,51.7"/>
	<path id="path4563" inkscape:connector-curvature="0" class="st1" d="M41.3,46.1h-3.1c0.1-1,0.8-1.7,1.7-1.7
		C40.7,44.4,41.3,45.1,41.3,46.1 M43.5,46.6c0-2.1-1.1-3.8-3.6-3.8c-2.6,0-4,1.9-4,4.5c0,3,1.5,4.4,4.2,4.4c1.1,0,2.1-0.2,3.1-0.6
		L43,49.4c-0.7,0.3-1.6,0.5-2.5,0.5c-1.6,0-2.4-0.8-2.4-2.4h5.3C43.4,47.3,43.4,46.9,43.5,46.6"/>
	<path id="path4565" inkscape:connector-curvature="0" class="st2" d="M0,56.7h43.2v-0.8H0V56.7z"/>
</g>
</svg>
